<svg aria-roledescription="er" role="graphics-document document" viewBox="0 0 5248.98291015625 815" style="max-width: 5248.98px; background-color: transparent;" xmlns:xlink="http://www.w3.org/1999/xlink" xmlns="http://www.w3.org/2000/svg" width="100%" id="mermaid-1684546980311"><style>#mermaid-1684546980311{font-family:"trebuchet ms",verdana,arial,sans-serif;font-size:16px;fill:#ccc;}#mermaid-1684546980311 .error-icon{fill:#a44141;}#mermaid-1684546980311 .error-text{fill:#ddd;stroke:#ddd;}#mermaid-1684546980311 .edge-thickness-normal{stroke-width:2px;}#mermaid-1684546980311 .edge-thickness-thick{stroke-width:3.5px;}#mermaid-1684546980311 .edge-pattern-solid{stroke-dasharray:0;}#mermaid-1684546980311 .edge-pattern-dashed{stroke-dasharray:3;}#mermaid-1684546980311 .edge-pattern-dotted{stroke-dasharray:2;}#mermaid-1684546980311 .marker{fill:lightgrey;stroke:lightgrey;}#mermaid-1684546980311 .marker.cross{stroke:lightgrey;}#mermaid-1684546980311 svg{font-family:"trebuchet ms",verdana,arial,sans-serif;font-size:16px;}#mermaid-1684546980311 .entityBox{fill:#1f2020;stroke:#81B1DB;}#mermaid-1684546980311 .attributeBoxOdd{fill:hsl(0, 0%, 32%);stroke:#81B1DB;}#mermaid-1684546980311 .attributeBoxEven{fill:hsl(0, 0%, 22%);stroke:#81B1DB;}#mermaid-1684546980311 .relationshipLabelBox{fill:hsl(20, 1.5873015873%, 12.3529411765%);opacity:0.7;background-color:hsl(20, 1.5873015873%, 12.3529411765%);}#mermaid-1684546980311 .relationshipLabelBox rect{opacity:0.5;}#mermaid-1684546980311 .relationshipLine{stroke:lightgrey;}#mermaid-1684546980311 .entityTitleText{text-anchor:middle;font-size:18px;fill:#ccc;}#mermaid-1684546980311 :root{--mermaid-font-family:"trebuchet ms",verdana,arial,sans-serif;}</style><g/><defs><marker orient="auto" markerHeight="18" markerWidth="18" refY="9" refX="0" id="ONLY_ONE_START"><path d="M9,0 L9,18 M15,0 L15,18" fill="none" stroke="gray"/></marker></defs><defs><marker orient="auto" markerHeight="18" markerWidth="18" refY="9" refX="18" id="ONLY_ONE_END"><path d="M3,0 L3,18 M9,0 L9,18" fill="none" stroke="gray"/></marker></defs><defs><marker orient="auto" markerHeight="18" markerWidth="30" refY="9" refX="0" id="ZERO_OR_ONE_START"><circle r="6" cy="9" cx="21" fill="white" stroke="gray"/><path d="M9,0 L9,18" fill="none" stroke="gray"/></marker></defs><defs><marker orient="auto" markerHeight="18" markerWidth="30" refY="9" refX="30" id="ZERO_OR_ONE_END"><circle r="6" cy="9" cx="9" fill="white" stroke="gray"/><path d="M21,0 L21,18" fill="none" stroke="gray"/></marker></defs><defs><marker orient="auto" markerHeight="36" markerWidth="45" refY="18" refX="18" id="ONE_OR_MORE_START"><path d="M0,18 Q 18,0 36,18 Q 18,36 0,18 M42,9 L42,27" fill="none" stroke="gray"/></marker></defs><defs><marker orient="auto" markerHeight="36" markerWidth="45" refY="18" refX="27" id="ONE_OR_MORE_END"><path d="M3,9 L3,27 M9,18 Q27,0 45,18 Q27,36 9,18" fill="none" stroke="gray"/></marker></defs><defs><marker orient="auto" markerHeight="36" markerWidth="57" refY="18" refX="18" id="ZERO_OR_MORE_START"><circle r="6" cy="18" cx="48" fill="white" stroke="gray"/><path d="M0,18 Q18,0 36,18 Q18,36 0,18" fill="none" stroke="gray"/></marker></defs><defs><marker orient="auto" markerHeight="36" markerWidth="57" refY="18" refX="39" id="ZERO_OR_MORE_END"><circle r="6" cy="18" cx="9" fill="white" stroke="gray"/><path d="M21,18 Q39,0 57,18 Q39,36 21,18" fill="none" stroke="gray"/></marker></defs><path style="stroke: gray; fill: none;" marker-start="url(#ONLY_ONE_START)" marker-end="url(#ONLY_ONE_END)" d="M2903.31640625,445L2903.31640625,453.3333333333333C2903.31640625,461.6666666666667,2903.31640625,478.3333333333333,2908.0783110119046,495C2912.840215773809,511.6666666666667,2922.364025297619,528.3333333333334,2927.1259300595234,536.6666666666666L2931.8878348214284,545" class="er relationshipLine"/><path style="stroke: gray; fill: none;" marker-start="url(#ONLY_ONE_START)" marker-end="url(#ONLY_ONE_END)" d="M1852.5625,409.8223352261044L2213.177734375,424.0186126884203C2573.79296875,438.21489015073627,3295.0234375,466.6074450753681,3684.8053385416665,492.14631513027666C4074.5872395833335,517.6851851851852,4132.920572916667,540.3703703703703,4162.087239583333,551.7129629629629L4191.25390625,563.0555555555555" class="er relationshipLine"/><path style="stroke: gray; fill: none;" marker-start="url(#ONLY_ONE_START)" marker-end="url(#ONLY_ONE_END)" d="M1734.578125,411.0633868523382L1502.9817708333333,425.05282237694854C1271.3854166666667,439.0422579015588,808.1927083333334,467.0211289507794,677.7135416666666,494.4835533640142C547.234375,521.945977777249,749.46875,548.891955554498,850.5859375,562.3649444431226L951.703125,575.8379333317471" class="er relationshipLine"/><path style="stroke: gray; fill: none;" marker-start="url(#ONLY_ONE_START)" marker-end="url(#ONLY_ONE_END)" d="M542.765625,438.8070922713743L526.4713541666666,448.17257689281195C510.1770833333333,457.5380615142496,477.5885416666667,476.26903075712477,545.7447916666666,498.9080542560685C613.9010416666666,521.5470777550123,782.8020833333334,548.0941555100246,867.2526041666666,561.3676943875308L951.703125,574.6412332650369" class="er relationshipLine"/><path style="stroke: gray; fill: none;" marker-start="url(#ONLY_ONE_START)" marker-end="url(#ONLY_ONE_END)" d="M273.57142857142856,445L268.8095238095238,453.3333333333333C264.04761904761904,461.6666666666667,254.52380952380952,478.3333333333333,249.76190476190473,501.25C245,524.1666666666666,245,553.3333333333334,245,582.5C245,611.6666666666666,245,640.8333333333334,249.76190476190473,663.75C254.52380952380952,686.6666666666666,264.04761904761904,703.3333333333334,268.8095238095238,711.6666666666666L273.57142857142856,720" class="er relationshipLine"/><path style="stroke: gray; fill: none;" marker-start="url(#ONLY_ONE_START)" marker-end="url(#ONLY_ONE_END)" d="M245,426.94444444444446L215.83333333333334,438.287037037037C186.66666666666666,449.6296296296296,128.33333333333334,472.3148148148148,99.16666666666667,491.9907407407407C70,511.6666666666667,70,528.3333333333334,70,536.6666666666666L70,545" class="er relationshipLine"/><path style="stroke: gray; fill: none;" marker-start="url(#ONLY_ONE_START)" marker-end="url(#ONLY_ONE_END)" d="M345,424.84497924797125L378.7057291666667,436.5374827066427C412.4114583333333,448.22998616531413,479.8229166666667,471.61499308265707,580.9401041666666,496.2863924591814C682.0572916666666,520.9577918357056,816.8802083333334,546.9155836714112,884.2916666666666,559.894479589264L951.703125,572.8733755071169" class="er relationshipLine"/><path style="stroke: gray; fill: none;" marker-start="url(#ONLY_ONE_START)" marker-end="url(#ONLY_ONE_END)" d="M801.703125,270L801.703125,278.3333333333333C801.703125,286.6666666666667,801.703125,303.3333333333333,801.703125,320C801.703125,336.6666666666667,801.703125,353.3333333333333,801.703125,361.6666666666667L801.703125,370" class="er relationshipLine"/><path style="stroke: gray; fill: none;" marker-start="url(#ONLY_ONE_START)" marker-end="url(#ONLY_ONE_END)" d="M801.703125,445L801.703125,453.3333333333333C801.703125,461.6666666666667,801.703125,478.3333333333333,826.703125,497.6041666666667C851.703125,516.875,901.703125,538.75,926.703125,549.6875L951.703125,560.625" class="er relationshipLine"/><path style="stroke: gray; fill: none;" marker-start="url(#ONLY_ONE_START)" marker-end="url(#ONLY_ONE_END)" d="M5103.85546875,740.5718484050695L5115.522135416667,737.1432070042247C5127.188802083333,733.7145656033796,5150.522135416667,726.8572828016898,5165.10546875,723.4286414008449C5179.688802083333,720,5185.522135416667,720,5191.35546875,726.25C5197.188802083333,732.5,5203.022135416667,745,5203.022135416667,757.5C5203.022135416667,770,5197.188802083333,782.5,5191.35546875,788.75C5185.522135416667,795,5179.688802083333,795,5165.10546875,791.5713585991551C5150.522135416667,788.1427171983102,5127.188802083333,781.2854343966204,5115.522135416667,777.8567929957753L5103.85546875,774.4281515949305" class="er relationshipLine"/><path style="stroke: gray; fill: none;" marker-start="url(#ONLY_ONE_START)" marker-end="url(#ONLY_ONE_END)" d="M1171.06640625,95L1171.06640625,103.33333333333333C1171.06640625,111.66666666666667,1171.06640625,128.33333333333334,1171.06640625,145C1171.06640625,161.66666666666666,1171.06640625,178.33333333333334,1171.06640625,186.66666666666666L1171.06640625,195" class="er relationshipLine"/><path style="stroke: gray; fill: none;" marker-start="url(#ONLY_ONE_START)" marker-end="url(#ONLY_ONE_END)" d="M1401.703125,411.7231003589635L1566.03125,425.6025836324696C1730.359375,439.48206690597567,2059.015625,467.2410334529879,2223.34375,495.7038500598273C2387.671875,524.1666666666666,2387.671875,553.3333333333334,2387.671875,582.5C2387.671875,611.6666666666666,2387.671875,640.8333333333334,2499.0774739583335,668.9850604523368C2610.4830729166665,697.1367875713403,2833.2942708333335,724.2735751426804,2944.6998697916665,737.8419689283506L3056.10546875,751.4103627140208" class="er relationshipLine"/><path style="stroke: gray; fill: none;" marker-start="url(#ONLY_ONE_START)" marker-end="url(#ONLY_ONE_END)" d="M1301.703125,417.22222222222223L1235.0364583333333,430.1851851851852C1168.3697916666667,443.1481481481481,1035.0364583333333,469.0740740740741,977.8936011904761,490.3703703703704C920.7507440476189,511.6666666666667,939.7983630952381,528.3333333333334,949.3221726190476,536.6666666666666L958.8459821428571,545" class="er relationshipLine"/><path style="stroke: gray; fill: none;" marker-start="url(#ONLY_ONE_START)" marker-end="url(#ONLY_ONE_END)" d="M3608.90625,412.58032813613363L3812.0143229166665,426.3169401134447C4015.1223958333335,440.0535520907558,4421.338541666667,467.52677604537786,4624.446614583333,495.8467213560223C4827.5546875,524.1666666666666,4827.5546875,553.3333333333334,4827.5546875,582.5C4827.5546875,611.6666666666666,4827.5546875,640.8333333333334,4854.404296875,666.159004173588C4881.25390625,691.4846750138425,4934.953125,712.969350027685,4961.802734375,723.7116875346063L4988.65234375,734.4540250415275" class="er relationshipLine"/><path style="stroke: gray; fill: none;" marker-start="url(#ONLY_ONE_START)" marker-end="url(#ONLY_ONE_END)" d="M3458.671875,424.07807619929656L3405.1126302083335,435.8983968327471C3351.5533854166665,447.7187174661977,3244.4348958333335,471.3593587330988,3168.5423177083335,493.80015038104216C3092.6497395833335,516.2409420289855,3047.9830729166665,537.481884057971,3025.6497395833335,548.1023550724638L3003.31640625,558.7228260869565" class="er relationshipLine"/><path style="stroke: gray; fill: none;" marker-start="url(#ONLY_ONE_START)" marker-end="url(#ONLY_ONE_END)" d="M2719.31640625,270L2719.31640625,278.3333333333333C2719.31640625,286.6666666666667,2719.31640625,303.3333333333333,2740.4947916666665,321.73790973165757C2761.6731770833335,340.1424861299819,2804.0299479166665,360.28497225996375,2825.2083333333335,370.3562153249547L2846.38671875,380.4274583899456" class="er relationshipLine"/><path style="stroke: gray; fill: none;" marker-start="url(#ONLY_ONE_START)" marker-end="url(#ONLY_ONE_END)" d="M2769.31640625,237.8715738231697L2896.728515625,251.55964485264144C3024.140625,265.24771588211314,3278.96484375,292.62385794105654,3406.376953125,314.6452623038616C3533.7890625,336.6666666666667,3533.7890625,353.3333333333333,3533.7890625,361.6666666666667L3533.7890625,370" class="er relationshipLine"/><path style="stroke: gray; fill: none;" marker-start="url(#ONLY_ONE_START)" marker-end="url(#ONLY_ONE_END)" d="M2669.31640625,235.0471391306523L2391.380859375,249.2059492755436C2113.4453125,263.3647594204349,1557.57421875,291.68237971021745,1279.638671875,320.42452318844204C1001.703125,349.1666666666667,1001.703125,378.3333333333333,1001.703125,407.5C1001.703125,436.6666666666667,1001.703125,465.8333333333333,1001.703125,488.75C1001.703125,511.6666666666667,1001.703125,528.3333333333334,1001.703125,536.6666666666666L1001.703125,545" class="er relationshipLine"/><path style="stroke: gray; fill: none;" marker-start="url(#ONLY_ONE_START)" marker-end="url(#ONLY_ONE_END)" d="M3225.2578125,412.97538025899945L3373.7571614583335,426.6461502158329C3522.2565104166665,440.31692017266624,3819.2552083333335,467.65846008633315,3980.2545572916665,490.07923004316655C4141.25390625,512.5,4166.25390625,530,4178.75390625,538.75L4191.25390625,547.5" class="er relationshipLine"/><path style="stroke: gray; fill: none;" marker-start="url(#ONLY_ONE_START)" marker-end="url(#ONLY_ONE_END)" d="M3106.3046875,410.0213189150726L2772.2044270833335,424.1844324292272C2438.1041666666665,438.3475459433817,1769.9036458333333,466.6737729716909,1426.279575892857,489.1702198191788C1082.655505952381,511.6666666666667,1063.607886904762,528.3333333333334,1054.0840773809525,536.6666666666666L1044.560267857143,545" class="er relationshipLine"/><path style="stroke: gray; fill: none;" marker-start="url(#ONLY_ONE_START)" marker-end="url(#ONLY_ONE_END)" d="M4291.25390625,588.8747559663732L4397.304036458333,602.3956299719777C4503.354166666667,615.9165039775821,4715.454427083333,642.9582519887911,4832.809244791667,664.8124593277289C4950.1640625,686.6666666666666,4972.7734375,703.3333333333334,4984.078125,711.6666666666666L4995.3828125,720" class="er relationshipLine"/><path style="stroke: gray; fill: none;" marker-start="url(#ONLY_ONE_START)" marker-end="url(#ONLY_ONE_END)" d="M4291.25390625,573.8461538461538L4319.031684027778,569.0384615384615C4346.809461805556,564.2307692307692,4402.365017361111,554.6153846153846,4437.087239583333,549.8076923076923C4471.809461805556,545,4485.698350694444,545,4499.587239583333,551.25C4513.476128472222,557.5,4527.36501736111,570,4527.36501736111,582.5C4527.36501736111,595,4513.476128472222,607.5,4499.587239583333,613.75C4485.698350694444,620,4471.809461805556,620,4437.087239583333,615.1923076923077C4402.365017361111,610.3846153846154,4346.809461805556,600.7692307692308,4319.031684027778,595.9615384615385L4291.25390625,591.1538461538462" class="er relationshipLine"/><path style="stroke: gray; fill: none;" marker-start="url(#ONLY_ONE_START)" marker-end="url(#ONLY_ONE_END)" d="M4191.25390625,589.5836759218266L4096.651041666667,602.9863966015222C4002.0481770833335,616.3891172812178,3812.8424479166665,643.1945586406089,3794.0729166666665,669.7367182641988C3775.3033854166665,696.2788778877888,3926.9700520833335,722.5577557755774,4002.8033854166665,735.697194719472L4078.63671875,748.8366336633663" class="er relationshipLine"/><path style="stroke: gray; fill: none;" marker-start="url(#ONLY_ONE_START)" marker-end="url(#ONLY_ONE_END)" d="M4191.25390625,590.9521922873745L4113.317708333333,604.1268269061454C4035.3815104166665,617.3014615249164,3879.5091145833335,643.6507307624582,3860.7395833333335,669.6082871919288C3841.9700520833335,695.5658436213993,3960.3033854166665,721.1316872427984,4019.4700520833335,733.9146090534979L4078.63671875,746.6975308641976" class="er relationshipLine"/><path style="stroke: gray; fill: none;" marker-start="url(#ONLY_ONE_START)" marker-end="url(#ONLY_ONE_END)" d="M4142.81640625,238.44421422134064L4290.272786458333,252.03684518445053C4437.729166666667,265.6294761475604,4732.641927083333,292.81473807378023,4880.098307291667,320.99070237022346C5027.5546875,349.1666666666667,5027.5546875,378.3333333333333,5027.5546875,407.5C5027.5546875,436.6666666666667,5027.5546875,465.8333333333333,5027.5546875,495C5027.5546875,524.1666666666666,5027.5546875,553.3333333333334,5027.5546875,582.5C5027.5546875,611.6666666666666,5027.5546875,640.8333333333334,5029.335565476191,663.75C5031.116443452381,686.6666666666666,5034.678199404762,703.3333333333334,5036.459077380953,711.6666666666666L5038.239955357143,720" class="er relationshipLine"/><path style="stroke: gray; fill: none;" marker-start="url(#ONLY_ONE_START)" marker-end="url(#ONLY_ONE_END)" d="M4013.84765625,246.38560442201393L3956.8704427083335,258.65467035167825C3899.8932291666665,270.9237362813426,3785.9388020833335,295.4618681406713,3761.6236979166665,319.3498457570386C3737.30859375,343.23782337340594,3802.6328125,366.4756467468119,3835.294921875,378.0945584335149L3867.95703125,389.7134701202179" class="er relationshipLine"/><path style="stroke: gray; fill: none;" marker-start="url(#ONLY_ONE_START)" marker-end="url(#ONLY_ONE_END)" d="M2987.31640625,237.46565820520914L3150.7565104166665,251.22138183767427C3314.1966145833335,264.9771054701394,3641.0768229166665,292.48855273506973,3799.755022321429,314.5776097008682C3958.433221726191,336.6666666666667,3948.909412202381,353.3333333333333,3944.1475074404766,361.6666666666667L3939.3856026785716,370" class="er relationshipLine"/><path style="stroke: gray; fill: none;" marker-start="url(#ONLY_ONE_START)" marker-end="url(#ONLY_ONE_END)" d="M2869.31640625,235.48995730894794L2591.380859375,249.5749644241233C2313.4453125,263.6599715392986,1757.57421875,291.82998576964934,1479.638671875,320.49832621815796C1201.703125,349.1666666666667,1201.703125,378.3333333333333,1201.703125,407.5C1201.703125,436.6666666666667,1201.703125,465.8333333333333,1176.703125,491.3541666666667C1151.703125,516.875,1101.703125,538.75,1076.703125,549.6875L1051.703125,560.625" class="er relationshipLine"/><path style="stroke: gray; fill: none;" marker-start="url(#ONLY_ONE_START)" marker-end="url(#ONLY_ONE_END)" d="M3874.10546875,236.25901839319747L4083.013671875,250.21584866099786C4291.921875,264.17267892879835,4709.73828125,292.08633946439915,4918.646484375,320.6265030655329C5127.5546875,349.1666666666667,5127.5546875,378.3333333333333,5127.5546875,407.5C5127.5546875,436.6666666666667,5127.5546875,465.8333333333333,5127.5546875,495C5127.5546875,524.1666666666666,5127.5546875,553.3333333333334,5127.5546875,582.5C5127.5546875,611.6666666666666,5127.5546875,640.8333333333334,5119.811755952381,663.75C5112.068824404762,686.6666666666666,5096.582961309524,703.3333333333334,5088.840029761905,711.6666666666666L5081.097098214285,720" class="er relationshipLine"/><path style="stroke: gray; fill: none;" marker-start="url(#ONLY_ONE_START)" marker-end="url(#ONLY_ONE_END)" d="M3874.10546875,250.4365847410591L3910.474609375,262.0304872842159C3946.84375,273.62438982737274,4019.58203125,296.81219491368637,4035.2239583333335,318.80754879392526C4050.8658854166665,340.80290267416416,4009.4114583333335,361.6058053483284,3988.6842447916665,372.0072566854105L3967.95703125,382.40870802249253" class="er relationshipLine"/><path style="stroke: gray; fill: none;" marker-start="url(#ONLY_ONE_START)" marker-end="url(#ONLY_ONE_END)" d="M3761.57421875,242.49476610018954L3688.8548177083335,255.4123050834913C3616.1354166666665,268.329844066793,3470.6966145833335,294.1649220333965,3397.9772135416665,321.6657943500316C3325.2578125,349.1666666666667,3325.2578125,378.3333333333333,3325.2578125,407.5C3325.2578125,436.6666666666667,3325.2578125,465.8333333333333,3271.6009114583335,493.0395657638167C3217.9440104166665,520.2457981943,3110.6302083333335,545.4915963886001,3056.9733072916665,558.1144954857501L3003.31640625,570.7373945829002" class="er relationshipLine"/><path style="stroke: gray; fill: none;" marker-start="url(#ONLY_ONE_START)" marker-end="url(#ONLY_ONE_END)" d="M3967.95703125,422.1665968257294L4009.33984375,434.30549735477456C4050.72265625,446.4443978838196,4133.48828125,470.72219894190977,4177.252046130952,491.1944328042882C4221.015811011905,511.6666666666667,4225.77771577381,528.3333333333334,4228.158668154762,536.6666666666666L4230.539620535715,545" class="er relationshipLine"/><path style="stroke: gray; fill: none;" marker-start="url(#ONLY_ONE_START)" marker-end="url(#ONLY_ONE_END)" d="M3877.5340401785716,445L3868.5511532738096,453.3333333333333C3859.5682663690477,461.6666666666667,3841.6024925595243,478.3333333333333,3832.619605654762,501.25C3823.63671875,524.1666666666666,3823.63671875,553.3333333333334,3823.63671875,582.5C3823.63671875,611.6666666666666,3823.63671875,640.8333333333334,3866.13671875,667.6092896174863C3908.63671875,694.3852459016393,3993.63671875,718.7704918032787,4036.13671875,730.9631147540982L4078.63671875,743.155737704918" class="er relationshipLine"/><path style="stroke: gray; fill: none;" marker-start="url(#ONLY_ONE_START)" marker-end="url(#ONLY_ONE_END)" d="M1383.15625,95L1383.15625,103.33333333333333C1383.15625,111.66666666666667,1383.15625,128.33333333333334,1399.6822916666667,145.05020080321285C1416.2083333333333,161.76706827309238,1449.2604166666667,178.53413654618475,1465.7864583333333,186.91767068273091L1482.3125,195.3012048192771" class="er relationshipLine"/><path style="stroke: gray; fill: none;" marker-start="url(#ONLY_ONE_START)" marker-end="url(#ONLY_ONE_END)" d="M1555.640625,270L1555.640625,278.3333333333333C1555.640625,286.6666666666667,1555.640625,303.3333333333333,1555.640625,320C1555.640625,336.6666666666667,1555.640625,353.3333333333333,1555.640625,361.6666666666667L1555.640625,370" class="er relationshipLine"/><path style="stroke: gray; fill: none;" marker-start="url(#ONLY_ONE_START)" marker-end="url(#ONLY_ONE_END)" d="M1628.96875,242.81674748134563L1720.4010416666667,255.68062290112138C1811.8333333333333,268.54449832089705,1994.6979166666667,294.27224916044855,2098.6302083333335,315.88612458022425C2202.5625,337.5,2227.5625,355,2240.0625,363.75L2252.5625,372.5" class="er relationshipLine"/><path style="stroke: gray; fill: none;" marker-start="url(#ONLY_ONE_START)" marker-end="url(#ONLY_ONE_END)" d="M1905.77734375,82.47257167934464L1867.61328125,92.89380973278719C1829.44921875,103.31504778622975,1753.12109375,124.15752389311488,1703.418712797619,142.91209527989076C1653.7163318452378,161.66666666666666,1630.6396949404761,178.33333333333334,1619.1013764880952,186.66666666666666L1607.5630580357142,195" class="er relationshipLine"/><path style="stroke: gray; fill: none;" marker-start="url(#ONLY_ONE_START)" marker-end="url(#ONLY_ONE_END)" d="M2088.68359375,72.92966249143235L2159.8782552083335,84.94138540952696C2231.0729166666665,96.95310832762156,2373.4622395833335,120.97655416381077,2444.6569010416665,147.57161041523872C2515.8515625,174.16666666666666,2515.8515625,203.33333333333334,2515.8515625,232.5C2515.8515625,261.6666666666667,2515.8515625,290.8333333333333,2520.6134672619046,313.75C2525.3753720238096,336.6666666666667,2534.899181547619,353.3333333333333,2539.6610863095234,361.6666666666667L2544.4229910714284,370" class="er relationshipLine"/><path style="stroke: gray; fill: none;" marker-start="url(#ONLY_ONE_START)" marker-end="url(#ONLY_ONE_END)" d="M1555.640625,445L1555.640625,453.3333333333333C1555.640625,461.6666666666667,1555.640625,478.3333333333333,1471.6510416666667,499.9336661777427C1387.6614583333333,521.533999022152,1219.6822916666667,548.0679980443041,1135.6927083333333,561.33499755538L1051.703125,574.6019970664561" class="er relationshipLine"/><path style="stroke: gray; fill: none;" marker-start="url(#ONLY_ONE_START)" marker-end="url(#ONLY_ONE_END)" d="M2415.8515625,253.2599320534786L2449.7623697916665,264.38327671123216C2483.6731770833335,275.5066213689857,2551.4947916666665,297.7533106844929,2580.313709077381,317.2099886755798C2609.1326264880954,336.6666666666667,2598.9488467261904,353.3333333333333,2593.856956845238,361.6666666666667L2588.765066964286,370" class="er relationshipLine"/><path style="stroke: gray; fill: none;" marker-start="url(#ONLY_ONE_START)" marker-end="url(#ONLY_ONE_END)" d="M2352.5625,270L2352.5625,278.3333333333333C2352.5625,286.6666666666667,2352.5625,303.3333333333333,2347.8005952380954,320C2343.0386904761904,336.6666666666667,2333.514880952381,353.3333333333333,2328.7529761904766,361.6666666666667L2323.9910714285716,370" class="er relationshipLine"/><path style="stroke: gray; fill: none;" marker-start="url(#ONLY_ONE_START)" marker-end="url(#ONLY_ONE_END)" d="M3692.3203125,589.8046495398723L3783.8092447916665,603.170541283227C3875.2981770833335,616.5364330265816,4058.2760416666665,643.2682165132908,4139.039527529762,664.9674415899786C4219.803013392858,686.6666666666666,4198.352120535715,703.3333333333334,4187.626674107143,711.6666666666666L4176.901227678572,720" class="er relationshipLine"/><path style="stroke: gray; fill: none;" marker-start="url(#ONLY_ONE_START)" marker-end="url(#ONLY_ONE_END)" d="M3592.3203125,590.6590430608068L3511.2845052083335,603.8825358840056C3430.2486979166665,617.1060287072045,3268.1770833333335,643.5530143536022,3187.1412760416665,665.1098405101344C3106.10546875,686.6666666666666,3106.10546875,703.3333333333334,3106.10546875,711.6666666666666L3106.10546875,720" class="er relationshipLine"/><path style="stroke: gray; fill: none;" marker-start="url(#ONLY_ONE_START)" marker-end="url(#ONLY_ONE_END)" d="M3003.31640625,599.8069196773496L3037.1145833333335,611.5057663977913C3070.9127604166665,623.204613118233,3138.5091145833335,646.6023065591165,3162.783482142857,666.6344866128916C3187.057849702381,686.6666666666666,3168.010230654762,703.3333333333334,3158.4864211309523,711.6666666666666L3148.9626116071427,720" class="er relationshipLine"/><path style="stroke: gray; fill: none;" marker-start="url(#ONLY_ONE_START)" marker-end="url(#ONLY_ONE_END)" d="M2853.453125,72.91234914475223L2892.4303385416665,84.92695762062685C2931.4075520833335,96.94156609650149,3009.3619791666665,120.97078304825074,3048.3391927083335,147.5687248574587C3087.31640625,174.16666666666666,3087.31640625,203.33333333333334,3087.31640625,232.5C3087.31640625,261.6666666666667,3087.31640625,290.8333333333333,3066.1380208333335,315.48790973165757C3044.9596354166665,340.1424861299819,3002.6028645833335,360.28497225996375,2981.4244791666665,370.3562153249547L2960.24609375,380.4274583899456" class="er relationshipLine"/><path style="stroke: gray; fill: none;" marker-start="url(#ONLY_ONE_START)" marker-end="url(#ONLY_ONE_END)" d="M2853.453125,60.113342044473484L3124.13671875,74.26111837039457C3394.8203125,88.40889469631566,3936.1875,116.70444734815783,4206.87109375,145.43555700741226C4477.5546875,174.16666666666666,4477.5546875,203.33333333333334,4477.5546875,232.5C4477.5546875,261.6666666666667,4477.5546875,290.8333333333333,4477.5546875,320C4477.5546875,349.1666666666667,4477.5546875,378.3333333333333,4477.5546875,407.5C4477.5546875,436.6666666666667,4477.5546875,465.8333333333333,4446.504557291667,491.91424352128894C4415.454427083333,517.9951537092446,4353.354166666667,540.9903074184891,4322.304036458333,552.4878842731115L4291.25390625,563.9854611277337" class="er relationshipLine"/><path style="stroke: gray; fill: none;" marker-start="url(#ONLY_ONE_START)" marker-end="url(#ONLY_ONE_END)" d="M2853.453125,92.53832316596277L2865.9303385416665,101.28193597163563C2878.4075520833335,110.02554877730852,2903.3619791666665,127.51277438865425,2915.8391927083335,144.58972052766046C2928.31640625,161.66666666666666,2928.31640625,178.33333333333334,2928.31640625,186.66666666666666L2928.31640625,195" class="er relationshipLine"/><path style="stroke: gray; fill: none;" marker-start="url(#ONLY_ONE_START)" marker-end="url(#ONLY_ONE_END)" d="M2853.453125,61.81295079000166L3014.1842447916665,75.67745899166805C3174.9153645833335,89.54196719333443,3496.3776041666665,117.27098359666722,3657.1087239583335,139.46882513166693C3817.83984375,161.66666666666666,3817.83984375,178.33333333333334,3817.83984375,186.66666666666666L3817.83984375,195" class="er relationshipLine"/><path style="stroke: gray; fill: none;" marker-start="url(#ONLY_ONE_START)" marker-end="url(#ONLY_ONE_END)" d="M2753.453125,62.64167141047065L2619.9713541666665,76.36805950872554C2486.4895833333335,90.09444760698044,2219.5260416666665,117.54722380349021,2086.0442708333335,145.85694523507843C1952.5625,174.16666666666666,1952.5625,203.33333333333334,1952.5625,232.5C1952.5625,261.6666666666667,1952.5625,290.8333333333333,1952.5625,320C1952.5625,349.1666666666667,1952.5625,378.3333333333333,1952.5625,407.5C1952.5625,436.6666666666667,1952.5625,465.8333333333333,1802.4192708333333,494.2331498370443C1652.2760416666667,522.6329663407554,1351.9895833333333,550.2659326815107,1201.8463541666667,564.0824158518884L1051.703125,577.898899022266" class="er relationshipLine"/><path style="stroke: gray; fill: none;" marker-start="url(#ONLY_ONE_START)" marker-end="url(#ONLY_ONE_END)" d="M4117.95703125,419.04623484205797L4038.6842447916665,431.70519570171496C3959.4114583333335,444.364156561372,3800.8658854166665,469.68207828068597,3721.5930989583335,490.6743724736763C3642.3203125,511.6666666666667,3642.3203125,528.3333333333334,3642.3203125,536.6666666666666L3642.3203125,545" class="er relationshipLine"/><path style="stroke: gray; fill: none;" marker-start="url(#ONLY_ONE_START)" marker-end="url(#ONLY_ONE_END)" d="M4262.56640625,419.2750659774477L4340.064453125,431.8958883145397C4417.5625,444.51671065163174,4572.55859375,469.7583553258159,4650.056640625,496.9625109962413C4727.5546875,524.1666666666666,4727.5546875,553.3333333333334,4727.5546875,582.5C4727.5546875,611.6666666666666,4727.5546875,640.8333333333334,4636.068359375,668.782526648535C4544.58203125,696.7317199637367,4361.609375,723.4634399274734,4270.123046875,736.8292999093418L4178.63671875,750.1951598912101" class="er relationshipLine"/><path style="stroke: gray; fill: none;" marker-start="url(#ONLY_ONE_START)" marker-end="url(#ONLY_ONE_END)" d="M4178.63671875,752.7234686905007L4235.727430555556,747.2695572420839C4292.81814236111,741.8156457936672,4406.999565972222,730.9078228968336,4478.362955729167,725.4539114484169C4549.72634548611,720,4578.27170138889,720,4606.817057291667,726.25C4635.362413194444,732.5,4663.907769097223,745,4663.907769097223,757.5C4663.907769097223,770,4635.362413194444,782.5,4606.817057291667,788.75C4578.27170138889,795,4549.72634548611,795,4478.362955729167,789.5460885515832C4406.999565972222,784.0921771031664,4292.81814236111,773.1843542063328,4235.727430555556,767.7304427579161L4178.63671875,762.2765313094993" class="er relationshipLine"/><path style="stroke: gray; fill: none;" marker-start="url(#ONLY_ONE_START)" marker-end="url(#ONLY_ONE_END)" d="M4677.5546875,414.7916666666667L4769.221354166667,428.15972222222223C4860.888020833333,441.5277777777778,5044.221354166667,468.2638888888889,5135.888020833333,496.21527777777777C5227.5546875,524.1666666666666,5227.5546875,553.3333333333334,5227.5546875,582.5C5227.5546875,611.6666666666666,5227.5546875,640.8333333333334,5206.938151041667,665.3666896487334C5186.321614583333,689.9000459641335,5145.088541666667,709.8000919282672,5124.472005208333,719.750114910334L5103.85546875,729.7001378924008" class="er relationshipLine"/><path style="stroke: gray; fill: none;" marker-start="url(#ONLY_ONE_START)" marker-end="url(#ONLY_ONE_END)" d="M4627.5546875,445L4627.5546875,453.3333333333333C4627.5546875,461.6666666666667,4627.5546875,478.3333333333333,4571.504557291667,499.36243802223953C4515.454427083333,520.3915427111457,4403.354166666667,545.7830854222915,4347.304036458333,558.4788567778643L4291.25390625,571.1746281334372" class="er relationshipLine"/><path style="stroke: gray; fill: none;" marker-start="url(#ONLY_ONE_START)" marker-end="url(#ONLY_ONE_END)" d="M4577.5546875,411.138868311955L4385.505208333333,425.1157235932958C4193.455729166667,439.0925788746367,3809.3567708333335,467.0462894373183,3617.3072916666665,489.3564780519925C3425.2578125,511.6666666666667,3425.2578125,528.3333333333334,3425.2578125,536.6666666666666L3425.2578125,545" class="er relationshipLine"/><path style="stroke: gray; fill: none;" marker-start="url(#ONLY_ONE_START)" marker-end="url(#ONLY_ONE_END)" d="M120,585.9306368119583L324.2122395833333,599.9421973432985C528.4244791666666,613.9537578746389,936.8489583333334,641.9768789373194,974.3489583333334,669.8775091553732C1011.8489583333334,697.778139373427,678.4244791666666,725.556278746854,511.7122395833333,739.4453484335677L345,753.3344181202812" class="er relationshipLine"/><path style="stroke: gray; fill: none;" marker-start="url(#ONLY_ONE_START)" marker-end="url(#ONLY_ONE_END)" d="M70,620L70,628.3333333333334C70,636.6666666666666,70,653.3333333333334,70,670C70,686.6666666666666,70,703.3333333333334,70,711.6666666666666L70,720" class="er relationshipLine"/><path style="stroke: gray; fill: none;" marker-start="url(#ONLY_ONE_START)" marker-end="url(#ONLY_ONE_END)" d="M2102.5625,445L2102.5625,453.3333333333333C2102.5625,461.6666666666667,2102.5625,478.3333333333333,1927.4192708333333,500.58763868190096C1752.2760416666667,522.8419440304687,1401.9895833333333,550.6838880609372,1226.8463541666667,564.6048600761716L1051.703125,578.5258320914058" class="er relationshipLine"/><g transform="translate(2846.38671875,370 )" id="entity-answerchoices-859d6908-6b10-5b95-a619-acee77d66925"><rect height="75" width="113.859375" y="0" x="0" class="er entityBox"/><text style="dominant-baseline: middle; text-anchor: middle; font-size: 12px;" transform="translate(56.9296875,37.5)" y="0" x="0" id="text-entity-answerchoices-859d6908-6b10-5b95-a619-acee77d66925" class="er entityLabel">answer_choices</text></g><g transform="translate(2903.31640625,545 )" id="entity-questions-ddee1f15-f8f9-5c5e-b359-cccaf29d85f2"><rect height="75" width="100" y="0" x="0" class="er entityBox"/><text style="dominant-baseline: middle; text-anchor: middle; font-size: 12px;" transform="translate(50,37.5)" y="0" x="0" id="text-entity-questions-ddee1f15-f8f9-5c5e-b359-cccaf29d85f2" class="er entityLabel">questions</text></g><g transform="translate(1734.578125,370 )" id="entity-calendarevents-48a94324-c440-5344-b653-8cc1c17390ef"><rect height="75" width="117.984375" y="0" x="0" class="er entityBox"/><text style="dominant-baseline: middle; text-anchor: middle; font-size: 12px;" transform="translate(58.9921875,37.5)" y="0" x="0" id="text-entity-calendarevents-48a94324-c440-5344-b653-8cc1c17390ef" class="er entityLabel">calendar_events</text></g><g transform="translate(4191.25390625,545 )" id="entity-offers-1e3ef585-8c78-5d94-a9fc-2e9f9275f74d"><rect height="75" width="100" y="0" x="0" class="er entityBox"/><text style="dominant-baseline: middle; text-anchor: middle; font-size: 12px;" transform="translate(50,37.5)" y="0" x="0" id="text-entity-offers-1e3ef585-8c78-5d94-a9fc-2e9f9275f74d" class="er entityLabel">offers</text></g><g transform="translate(951.703125,545 )" id="entity-users-33ae1e26-be31-5c1d-bf65-e859e9d0308e"><rect height="75" width="100" y="0" x="0" class="er entityBox"/><text style="dominant-baseline: middle; text-anchor: middle; font-size: 12px;" transform="translate(50,37.5)" y="0" x="0" id="text-entity-users-33ae1e26-be31-5c1d-bf65-e859e9d0308e" class="er entityLabel">users</text></g><g transform="translate(542.765625,370 )" id="entity-characteristics-19002fab-58b9-5959-b6da-b71b2e6fc6da"><rect height="75" width="108.9375" y="0" x="0" class="er entityBox"/><text style="dominant-baseline: middle; text-anchor: middle; font-size: 12px;" transform="translate(54.46875,37.5)" y="0" x="0" id="text-entity-characteristics-19002fab-58b9-5959-b6da-b71b2e6fc6da" class="er entityLabel">characteristics</text></g><g transform="translate(245,370 )" id="entity-connections-f019845f-a8a2-56d3-8d32-567bed325f20"><rect height="75" width="100" y="0" x="0" class="er entityBox"/><text style="dominant-baseline: middle; text-anchor: middle; font-size: 12px;" transform="translate(50,37.5)" y="0" x="0" id="text-entity-connections-f019845f-a8a2-56d3-8d32-567bed325f20" class="er entityLabel">connections</text></g><g transform="translate(245,720 )" id="entity-clients-ff31054f-5edf-5895-ab28-e526bff23404"><rect height="75" width="100" y="0" x="0" class="er entityBox"/><text style="dominant-baseline: middle; text-anchor: middle; font-size: 12px;" transform="translate(50,37.5)" y="0" x="0" id="text-entity-clients-ff31054f-5edf-5895-ab28-e526bff23404" class="er entityLabel">clients</text></g><g transform="translate(20,545 )" id="entity-services-fe6d7bd3-d3e4-5258-ac7f-2944b02e2b0d"><rect height="75" width="100" y="0" x="0" class="er entityBox"/><text style="dominant-baseline: middle; text-anchor: middle; font-size: 12px;" transform="translate(50,37.5)" y="0" x="0" id="text-entity-services-fe6d7bd3-d3e4-5258-ac7f-2944b02e2b0d" class="er entityLabel">services</text></g><g transform="translate(743.5859375,195 )" id="entity-consentactions-a6029a51-ad7b-5719-af96-5152cd9a7f39"><rect height="75" width="116.234375" y="0" x="0" class="er entityBox"/><text style="dominant-baseline: middle; text-anchor: middle; font-size: 12px;" transform="translate(58.1171875,37.5)" y="0" x="0" id="text-entity-consentactions-a6029a51-ad7b-5719-af96-5152cd9a7f39" class="er entityLabel">consent_actions</text></g><g transform="translate(751.703125,370 )" id="entity-consents-ded3a9fe-5629-5cc0-8632-db130c8cbc41"><rect height="75" width="100" y="0" x="0" class="er entityBox"/><text style="dominant-baseline: middle; text-anchor: middle; font-size: 12px;" transform="translate(50,37.5)" y="0" x="0" id="text-entity-consents-ded3a9fe-5629-5cc0-8632-db130c8cbc41" class="er entityLabel">consents</text></g><g transform="translate(4988.65234375,720 )" id="entity-contententries-626a8811-1137-5aae-8acd-8eb52abc912a"><rect height="75" width="115.203125" y="0" x="0" class="er entityBox"/><text style="dominant-baseline: middle; text-anchor: middle; font-size: 12px;" transform="translate(57.6015625,37.5)" y="0" x="0" id="text-entity-contententries-626a8811-1137-5aae-8acd-8eb52abc912a" class="er entityLabel">content_entries</text></g><g transform="translate(1121.06640625,20 )" id="entity-creations-45492408-6fc6-51a1-8423-f0baec5683fc"><rect height="75" width="100" y="0" x="0" class="er entityBox"/><text style="dominant-baseline: middle; text-anchor: middle; font-size: 12px;" transform="translate(50,37.5)" y="0" x="0" id="text-entity-creations-45492408-6fc6-51a1-8423-f0baec5683fc" class="er entityLabel">creations</text></g><g transform="translate(1121.06640625,195 )" id="entity-jobs-4c9c8b5f-ad2f-51d6-9755-1299f4a2b62e"><rect height="75" width="100" y="0" x="0" class="er entityBox"/><text style="dominant-baseline: middle; text-anchor: middle; font-size: 12px;" transform="translate(50,37.5)" y="0" x="0" id="text-entity-jobs-4c9c8b5f-ad2f-51d6-9755-1299f4a2b62e" class="er entityLabel">jobs</text></g><g transform="translate(1301.703125,370 )" id="entity-facts-73aee8c8-a0cc-564c-9f4a-87339cc5bbf3"><rect height="75" width="100" y="0" x="0" class="er entityBox"/><text style="dominant-baseline: middle; text-anchor: middle; font-size: 12px;" transform="translate(50,37.5)" y="0" x="0" id="text-entity-facts-73aee8c8-a0cc-564c-9f4a-87339cc5bbf3" class="er entityLabel">facts</text></g><g transform="translate(3056.10546875,720 )" id="entity-tags-6d8c4510-222a-5f9e-b73d-d896901739b8"><rect height="75" width="100" y="0" x="0" class="er entityBox"/><text style="dominant-baseline: middle; text-anchor: middle; font-size: 12px;" transform="translate(50,37.5)" y="0" x="0" id="text-entity-tags-6d8c4510-222a-5f9e-b73d-d896901739b8" class="er entityLabel">tags</text></g><g transform="translate(3458.671875,370 )" id="entity-feedbackcomponents-22aeb6eb-f661-54f5-9e65-d228e1a00a4b"><rect height="75" width="150.234375" y="0" x="0" class="er entityBox"/><text style="dominant-baseline: middle; text-anchor: middle; font-size: 12px;" transform="translate(75.1171875,37.5)" y="0" x="0" id="text-entity-feedbackcomponents-22aeb6eb-f661-54f5-9e65-d228e1a00a4b" class="er entityLabel">feedback_components</text></g><g transform="translate(2669.31640625,195 )" id="entity-feedbacks-027f2bdc-cfdd-5a0b-a4dd-dc12376b05ae"><rect height="75" width="100" y="0" x="0" class="er entityBox"/><text style="dominant-baseline: middle; text-anchor: middle; font-size: 12px;" transform="translate(50,37.5)" y="0" x="0" id="text-entity-feedbacks-027f2bdc-cfdd-5a0b-a4dd-dc12376b05ae" class="er entityLabel">feedbacks</text></g><g transform="translate(3106.3046875,370 )" id="entity-offerprogresses-2aaeecf4-7fed-5558-b113-3e8d62ea3fb7"><rect height="75" width="118.953125" y="0" x="0" class="er entityBox"/><text style="dominant-baseline: middle; text-anchor: middle; font-size: 12px;" transform="translate(59.4765625,37.5)" y="0" x="0" id="text-entity-offerprogresses-2aaeecf4-7fed-5558-b113-3e8d62ea3fb7" class="er entityLabel">offer_progresses</text></g><g transform="translate(4078.63671875,720 )" id="entity-rules-3777b5f7-5cce-5870-8250-e95aff0c970e"><rect height="75" width="100" y="0" x="0" class="er entityBox"/><text style="dominant-baseline: middle; text-anchor: middle; font-size: 12px;" transform="translate(50,37.5)" y="0" x="0" id="text-entity-rules-3777b5f7-5cce-5870-8250-e95aff0c970e" class="er entityLabel">rules</text></g><g transform="translate(4013.84765625,195 )" id="entity-pageinfoscreens-85df4eba-1e82-5638-8597-898e930fb783"><rect height="75" width="128.96875" y="0" x="0" class="er entityBox"/><text style="dominant-baseline: middle; text-anchor: middle; font-size: 12px;" transform="translate(64.484375,37.5)" y="0" x="0" id="text-entity-pageinfoscreens-85df4eba-1e82-5638-8597-898e930fb783" class="er entityLabel">page_info_screens</text></g><g transform="translate(3867.95703125,370 )" id="entity-pages-39cce197-6933-52c8-bffd-261df920aba6"><rect height="75" width="100" y="0" x="0" class="er entityBox"/><text style="dominant-baseline: middle; text-anchor: middle; font-size: 12px;" transform="translate(50,37.5)" y="0" x="0" id="text-entity-pages-39cce197-6933-52c8-bffd-261df920aba6" class="er entityLabel">pages</text></g><g transform="translate(2869.31640625,195 )" id="entity-pageprogresses-5bbaa17a-aa63-57b1-a82a-51666a443765"><rect height="75" width="118" y="0" x="0" class="er entityBox"/><text style="dominant-baseline: middle; text-anchor: middle; font-size: 12px;" transform="translate(59,37.5)" y="0" x="0" id="text-entity-pageprogresses-5bbaa17a-aa63-57b1-a82a-51666a443765" class="er entityLabel">page_progresses</text></g><g transform="translate(3761.57421875,195 )" id="entity-pagequestions-a2491d25-f9cc-5228-8b17-074020c96ff9"><rect height="75" width="112.53125" y="0" x="0" class="er entityBox"/><text style="dominant-baseline: middle; text-anchor: middle; font-size: 12px;" transform="translate(56.265625,37.5)" y="0" x="0" id="text-entity-pagequestions-a2491d25-f9cc-5228-8b17-074020c96ff9" class="er entityLabel">page_questions</text></g><g transform="translate(1332.3046875,20 )" id="entity-pointsdeltas-e0e8ed10-93b2-552d-a767-7337e791c392"><rect height="75" width="101.703125" y="0" x="0" class="er entityBox"/><text style="dominant-baseline: middle; text-anchor: middle; font-size: 12px;" transform="translate(50.8515625,37.5)" y="0" x="0" id="text-entity-pointsdeltas-e0e8ed10-93b2-552d-a767-7337e791c392" class="er entityLabel">points_deltas</text></g><g transform="translate(1482.3125,195 )" id="entity-pointsledgerentries-f876cb29-515e-5b60-962f-72132a894d42"><rect height="75" width="146.65625" y="0" x="0" class="er entityBox"/><text style="dominant-baseline: middle; text-anchor: middle; font-size: 12px;" transform="translate(73.328125,37.5)" y="0" x="0" id="text-entity-pointsledgerentries-f876cb29-515e-5b60-962f-72132a894d42" class="er entityLabel">points_ledger_entries</text></g><g transform="translate(1501.703125,370 )" id="entity-pointsledgers-0e566498-c322-52a2-99d7-3cec594e09ad"><rect height="75" width="107.875" y="0" x="0" class="er entityBox"/><text style="dominant-baseline: middle; text-anchor: middle; font-size: 12px;" transform="translate(53.9375,37.5)" y="0" x="0" id="text-entity-pointsledgers-0e566498-c322-52a2-99d7-3cec594e09ad" class="er entityLabel">points_ledgers</text></g><g transform="translate(2252.5625,370 )" id="entity-pointsrules-5883715b-f3d4-5cb5-b599-e93d2c75c36f"><rect height="75" width="100" y="0" x="0" class="er entityBox"/><text style="dominant-baseline: middle; text-anchor: middle; font-size: 12px;" transform="translate(50,37.5)" y="0" x="0" id="text-entity-pointsrules-5883715b-f3d4-5cb5-b599-e93d2c75c36f" class="er entityLabel">points_rules</text></g><g transform="translate(1905.77734375,20 )" id="entity-pointsledgerentrieslimits-59631b87-9013-5ccb-96e2-60c006f154ca"><rect height="75" width="182.90625" y="0" x="0" class="er entityBox"/><text style="dominant-baseline: middle; text-anchor: middle; font-size: 12px;" transform="translate(91.453125,37.5)" y="0" x="0" id="text-entity-pointsledgerentrieslimits-59631b87-9013-5ccb-96e2-60c006f154ca" class="er entityLabel">points_ledger_entries_limits</text></g><g transform="translate(2515.8515625,370 )" id="entity-pointslimits-df287892-7b8a-5a09-829a-a434b0fabb21"><rect height="75" width="100" y="0" x="0" class="er entityBox"/><text style="dominant-baseline: middle; text-anchor: middle; font-size: 12px;" transform="translate(50,37.5)" y="0" x="0" id="text-entity-pointslimits-df287892-7b8a-5a09-829a-a434b0fabb21" class="er entityLabel">points_limits</text></g><g transform="translate(2289.2734375,195 )" id="entity-pointsrulelimits-a7e6bc2e-2e5f-5615-80d6-f913b76e9ffd"><rect height="75" width="126.578125" y="0" x="0" class="er entityBox"/><text style="dominant-baseline: middle; text-anchor: middle; font-size: 12px;" transform="translate(63.2890625,37.5)" y="0" x="0" id="text-entity-pointsrulelimits-a7e6bc2e-2e5f-5615-80d6-f913b76e9ffd" class="er entityLabel">points_rule_limits</text></g><g transform="translate(3592.3203125,545 )" id="entity-predicates-1b63cb19-48be-5ef8-ad50-0bec7396e6f9"><rect height="75" width="100" y="0" x="0" class="er entityBox"/><text style="dominant-baseline: middle; text-anchor: middle; font-size: 12px;" transform="translate(50,37.5)" y="0" x="0" id="text-entity-predicates-1b63cb19-48be-5ef8-ad50-0bec7396e6f9" class="er entityLabel">predicates</text></g><g transform="translate(2753.453125,20 )" id="entity-responses-2fa119c5-c455-537f-bb6b-055e4389c9e6"><rect height="75" width="100" y="0" x="0" class="er entityBox"/><text style="dominant-baseline: middle; text-anchor: middle; font-size: 12px;" transform="translate(50,37.5)" y="0" x="0" id="text-entity-responses-2fa119c5-c455-537f-bb6b-055e4389c9e6" class="er entityLabel">responses</text></g><g transform="translate(4117.95703125,370 )" id="entity-rulepathpredicates-826195f0-8e3c-534f-871f-8bd04aba6d9f"><rect height="75" width="144.609375" y="0" x="0" class="er entityBox"/><text style="dominant-baseline: middle; text-anchor: middle; font-size: 12px;" transform="translate(72.3046875,37.5)" y="0" x="0" id="text-entity-rulepathpredicates-826195f0-8e3c-534f-871f-8bd04aba6d9f" class="er entityLabel">rule_path_predicates</text></g><g transform="translate(4577.5546875,370 )" id="entity-screens-9eda042d-369c-5f27-81ce-bd54f73fd82a"><rect height="75" width="100" y="0" x="0" class="er entityBox"/><text style="dominant-baseline: middle; text-anchor: middle; font-size: 12px;" transform="translate(50,37.5)" y="0" x="0" id="text-entity-screens-9eda042d-369c-5f27-81ce-bd54f73fd82a" class="er entityLabel">screens</text></g><g transform="translate(3358.1953125,545 )" id="entity-settingscontainers-562c730c-5cd9-585d-9d8c-964b51f1107a"><rect height="75" width="134.125" y="0" x="0" class="er entityBox"/><text style="dominant-baseline: middle; text-anchor: middle; font-size: 12px;" transform="translate(67.0625,37.5)" y="0" x="0" id="text-entity-settingscontainers-562c730c-5cd9-585d-9d8c-964b51f1107a" class="er entityLabel">settings_containers</text></g><g transform="translate(20,720 )" id="entity-providers-58c551e2-9a12-5c82-a577-a7baa11dd9a2"><rect height="75" width="100" y="0" x="0" class="er entityBox"/><text style="dominant-baseline: middle; text-anchor: middle; font-size: 12px;" transform="translate(50,37.5)" y="0" x="0" id="text-entity-providers-58c551e2-9a12-5c82-a577-a7baa11dd9a2" class="er entityLabel">providers</text></g><g transform="translate(2052.5625,370 )" id="entity-vouchers-b075e173-2579-5004-9332-b9654f54e117"><rect height="75" width="100" y="0" x="0" class="er entityBox"/><text style="dominant-baseline: middle; text-anchor: middle; font-size: 12px;" transform="translate(50,37.5)" y="0" x="0" id="text-entity-vouchers-b075e173-2579-5004-9332-b9654f54e117" class="er entityLabel">vouchers</text></g><rect height="14" width="62.234375" y="490.4471740722656" x="2877.694091796875" class="er relationshipLabelBox"/><text style="text-anchor: middle; dominant-baseline: middle; font-size: 12px;" y="497.4471740722656" x="2908.811279296875" id="rel1" class="er relationshipLabel">question_id</text><rect height="14" width="42.921875" y="450.7193603515625" x="3003.88818359375" class="er relationshipLabelBox"/><text style="text-anchor: middle; dominant-baseline: middle; font-size: 12px;" y="457.7193603515625" x="3025.34912109375" id="rel2" class="er relationshipLabel">offer_id</text><rect height="14" width="39.03125" y="450.31622314453125" x="999.0753173828125" class="er relationshipLabelBox"/><text style="text-anchor: middle; dominant-baseline: middle; font-size: 12px;" y="457.31622314453125" x="1018.5909423828125" id="rel3" class="er relationshipLabel">user_id</text><rect height="14" width="39.03125" y="525.9120483398438" x="676.8251342773438" class="er relationshipLabelBox"/><text style="text-anchor: middle; dominant-baseline: middle; font-size: 12px;" y="532.9120483398438" x="696.3407592773438" id="rel4" class="er relationshipLabel">user_id</text><rect height="14" width="47.171875" y="575.5" x="221.4140625" class="er relationshipLabelBox"/><text style="text-anchor: middle; dominant-baseline: middle; font-size: 12px;" y="582.5" x="245" id="rel5" class="er relationshipLabel">client_id</text><rect height="14" width="54.265625" y="462.3225402832031" x="114.11831665039062" class="er relationshipLabelBox"/><text style="text-anchor: middle; dominant-baseline: middle; font-size: 12px;" y="469.3225402832031" x="141.25112915039062" id="rel6" class="er relationshipLabel">service_id</text><rect height="13.999969482421875" width="39.03125" y="504.2129364013672" x="625.7071533203125" class="er relationshipLabelBox"/><text style="text-anchor: middle; dominant-baseline: middle; font-size: 12px;" y="511.2129211425781" x="645.2227783203125" id="rel7" class="er relationshipLabel">user_id</text><rect height="14" width="58.0625" y="313" x="772.671875" class="er relationshipLabelBox"/><text style="text-anchor: middle; dominant-baseline: middle; font-size: 12px;" y="320" x="801.703125" id="rel8" class="er relationshipLabel">consent_id</text><rect height="14" width="39.03125" y="511.34246826171875" x="840.7221069335938" class="er relationshipLabelBox"/><text style="text-anchor: middle; dominant-baseline: middle; font-size: 12px;" y="518.3424682617188" x="860.2377319335938" id="rel9" class="er relationshipLabel">user_id</text><rect height="14" width="51.921875" y="750.5" x="5177.06103515625" class="er relationshipLabelBox"/><text style="text-anchor: middle; dominant-baseline: middle; font-size: 12px;" y="757.5" x="5203.02197265625" id="rel10" class="er relationshipLabel">parent_id</text><rect height="14" width="33.9375" y="138" x="1154.09765625" class="er relationshipLabelBox"/><text style="text-anchor: middle; dominant-baseline: middle; font-size: 12px;" y="145" x="1171.06640625" id="rel11" class="er relationshipLabel">job_id</text><rect height="14" width="33.5" y="497.61492919921875" x="2252.750732421875" class="er relationshipLabelBox"/><text style="text-anchor: middle; dominant-baseline: middle; font-size: 12px;" y="504.61492919921875" x="2269.500732421875" id="rel12" class="er relationshipLabel">tag_id</text><rect height="14" width="39.03125" y="451.3896789550781" x="1077.7987060546875" class="er relationshipLabelBox"/><text style="text-anchor: middle; dominant-baseline: middle; font-size: 12px;" y="458.3896789550781" x="1097.3143310546875" id="rel13" class="er relationshipLabel">user_id</text><rect height="14" width="96.75" y="460.19342041015625" x="4308.01806640625" class="er relationshipLabelBox"/><text style="text-anchor: middle; dominant-baseline: middle; font-size: 12px;" y="467.19342041015625" x="4356.39306640625" id="rel14" class="er relationshipLabel">content_entrie_id</text><rect height="14" width="62.234375" y="470.79736328125" x="3195.602294921875" class="er relationshipLabelBox"/><text style="text-anchor: middle; dominant-baseline: middle; font-size: 12px;" y="477.79736328125" x="3226.719482421875" id="rel15" class="er relationshipLabel">question_id</text><rect height="14" width="95.40625" y="332.7469177246094" x="2718.564453125" class="er relationshipLabelBox"/><text style="text-anchor: middle; dominant-baseline: middle; font-size: 12px;" y="339.7469177246094" x="2766.267578125" id="rel16" class="er relationshipLabel">answer_choice_id</text><rect height="14" width="131.78125" y="274.2922668457031" x="3096.707763671875" class="er relationshipLabelBox"/><text style="text-anchor: middle; dominant-baseline: middle; font-size: 12px;" y="281.2922668457031" x="3162.598388671875" id="rel17" class="er relationshipLabel">feedback_component_id</text><rect height="14" width="39.03125" y="277.46588134765625" x="1732.0380859375" class="er relationshipLabelBox"/><text style="text-anchor: middle; dominant-baseline: middle; font-size: 12px;" y="284.46588134765625" x="1751.5537109375" id="rel18" class="er relationshipLabel">user_id</text><rect height="14" width="42.921875" y="452.2158203125" x="3691.564697265625" class="er relationshipLabelBox"/><text style="text-anchor: middle; dominant-baseline: middle; font-size: 12px;" y="459.2158203125" x="3713.025634765625" id="rel19" class="er relationshipLabel">offer_id</text><rect height="14" width="39.03125" y="448.01190185546875" x="2051.963134765625" class="er relationshipLabelBox"/><text style="text-anchor: middle; dominant-baseline: middle; font-size: 12px;" y="455.01190185546875" x="2071.478759765625" id="rel20" class="er relationshipLabel">user_id</text><rect height="14" width="96.75" y="628.7366333007812" x="4600.01123046875" class="er relationshipLabelBox"/><text style="text-anchor: middle; dominant-baseline: middle; font-size: 12px;" y="635.7366333007812" x="4648.38623046875" id="rel21" class="er relationshipLabel">content_entrie_id</text><rect height="14" width="106.109375" y="575.5" x="4474.310546875" class="er relationshipLabelBox"/><text style="text-anchor: middle; dominant-baseline: middle; font-size: 12px;" y="582.5" x="4527.365234375" id="rel22" class="er relationshipLabel">previous_version_id</text><rect height="14" width="126.75" y="641.7955322265625" x="3776.732177734375" class="er relationshipLabelBox"/><text style="text-anchor: middle; dominant-baseline: middle; font-size: 12px;" y="648.7955322265625" x="3840.107177734375" id="rel23" class="er relationshipLabel">disqualification_rule_id</text><rect height="14" width="93.0625" y="640.669677734375" x="3858.575439453125" class="er relationshipLabelBox"/><text style="text-anchor: middle; dominant-baseline: middle; font-size: 12px;" y="647.669677734375" x="3905.106689453125" id="rel24" class="er relationshipLabel">targeting_rule_id</text><rect height="14" width="96.75" y="295.1240234375" x="4712.091796875" class="er relationshipLabelBox"/><text style="text-anchor: middle; dominant-baseline: middle; font-size: 12px;" y="302.1240234375" x="4760.466796875" id="rel25" class="er relationshipLabel">content_entrie_id</text><rect height="14" width="41.96875" y="286.81201171875" x="3795.188232421875" class="er relationshipLabelBox"/><text style="text-anchor: middle; dominant-baseline: middle; font-size: 12px;" y="293.81201171875" x="3816.172607421875" id="rel26" class="er relationshipLabel">page_id</text><rect height="14" width="41.96875" y="272.9941711425781" x="3458.401611328125" class="er relationshipLabelBox"/><text style="text-anchor: middle; dominant-baseline: middle; font-size: 12px;" y="279.9941711425781" x="3479.385986328125" id="rel27" class="er relationshipLabel">page_id</text><rect height="14" width="39.03125" y="280.6910400390625" x="1883.94189453125" class="er relationshipLabelBox"/><text style="text-anchor: middle; dominant-baseline: middle; font-size: 12px;" y="287.6910400390625" x="1903.45751953125" id="rel28" class="er relationshipLabel">user_id</text><rect height="14" width="96.75" y="288.01654052734375" x="4632.06689453125" class="er relationshipLabelBox"/><text style="text-anchor: middle; dominant-baseline: middle; font-size: 12px;" y="295.01654052734375" x="4680.44189453125" id="rel29" class="er relationshipLabel">content_entrie_id</text><rect height="14" width="41.96875" y="290.5549011230469" x="3984.36279296875" class="er relationshipLabelBox"/><text style="text-anchor: middle; dominant-baseline: middle; font-size: 12px;" y="297.5549011230469" x="4005.34716796875" id="rel30" class="er relationshipLabel">page_id</text><rect height="14" width="62.234375" y="350.29400634765625" x="3308.143310546875" class="er relationshipLabelBox"/><text style="text-anchor: middle; dominant-baseline: middle; font-size: 12px;" y="357.29400634765625" x="3339.260498046875" id="rel31" class="er relationshipLabel">question_id</text><rect height="14" width="42.921875" y="458.8631286621094" x="4089.81396484375" class="er relationshipLabelBox"/><text style="text-anchor: middle; dominant-baseline: middle; font-size: 12px;" y="465.8631286621094" x="4111.27490234375" id="rel32" class="er relationshipLabel">offer_id</text><rect height="14" width="124.90625" y="652.0341186523438" x="3791.573974609375" class="er relationshipLabelBox"/><text style="text-anchor: middle; dominant-baseline: middle; font-size: 12px;" y="659.0341186523438" x="3854.027099609375" id="rel33" class="er relationshipLabel">page_targeting_rule_id</text><rect height="14" width="85.140625" y="151.49002075195312" x="1373.5408935546875" class="er relationshipLabelBox"/><text style="text-anchor: middle; dominant-baseline: middle; font-size: 12px;" y="158.49002075195312" x="1416.1112060546875" id="rel34" class="er relationshipLabel">ledger_entry_id</text><rect height="14" width="50.40625" y="313" x="1530.4375" class="er relationshipLabelBox"/><text style="text-anchor: middle; dominant-baseline: middle; font-size: 12px;" y="320" x="1555.640625" id="rel35" class="er relationshipLabel">ledger_id</text><rect height="14" width="37.71875" y="281.9262390136719" x="1927.2061767578125" class="er relationshipLabelBox"/><text style="text-anchor: middle; dominant-baseline: middle; font-size: 12px;" y="288.9262390136719" x="1946.0655517578125" id="rel36" class="er relationshipLabel">rule_id</text><rect height="13.999992370605469" width="85.140625" y="119.45710372924805" x="1708.97119140625" class="er relationshipLabelBox"/><text style="text-anchor: middle; dominant-baseline: middle; font-size: 12px;" y="126.45709991455078" x="1751.54150390625" id="rel37" class="er relationshipLabel">ledger_entry_id</text><rect height="14" width="41.515625" y="125.64402770996094" x="2376.164306640625" class="er relationshipLabelBox"/><text style="text-anchor: middle; dominant-baseline: middle; font-size: 12px;" y="132.64402770996094" x="2396.922119140625" id="rel38" class="er relationshipLabel">limit_id</text><rect height="14" width="39.03125" y="524.5361938476562" x="1296.8089599609375" class="er relationshipLabelBox"/><text style="text-anchor: middle; dominant-baseline: middle; font-size: 12px;" y="531.5361938476562" x="1316.3245849609375" id="rel39" class="er relationshipLabel">user_id</text><rect height="14" width="41.515625" y="285.4327087402344" x="2508.46533203125" class="er relationshipLabelBox"/><text style="text-anchor: middle; dominant-baseline: middle; font-size: 12px;" y="292.4327087402344" x="2529.22314453125" id="rel40" class="er relationshipLabel">limit_id</text><rect height="14" width="37.71875" y="315.4471740722656" x="2328.208251953125" class="er relationshipLabelBox"/><text style="text-anchor: middle; dominant-baseline: middle; font-size: 12px;" y="322.4471740722656" x="2347.067626953125" id="rel41" class="er relationshipLabel">rule_id</text><rect height="14" width="37.71875" y="624.2261352539062" x="3948.289794921875" class="er relationshipLabelBox"/><text style="text-anchor: middle; dominant-baseline: middle; font-size: 12px;" y="631.2261352539062" x="3967.149169921875" id="rel42" class="er relationshipLabel">rule_id</text><rect height="14" width="33.5" y="626.6959838867188" x="3319.666748046875" class="er relationshipLabelBox"/><text style="text-anchor: middle; dominant-baseline: middle; font-size: 12px;" y="633.6959838867188" x="3336.416748046875" id="rel43" class="er relationshipLabel">tag_id</text><rect height="14" width="88.84375" y="634.3154296875" x="3071.922119140625" class="er relationshipLabelBox"/><text style="text-anchor: middle; dominant-baseline: middle; font-size: 12px;" y="641.3154296875" x="3116.343994140625" id="rel44" class="er relationshipLabel">targeting_tag_id</text><rect height="14" width="95.40625" y="178.65420532226562" x="3033.475341796875" class="er relationshipLabelBox"/><text style="text-anchor: middle; dominant-baseline: middle; font-size: 12px;" y="185.65420532226562" x="3081.178466796875" id="rel45" class="er relationshipLabel">answer_choice_id</text><rect height="14" width="42.921875" y="112.79225158691406" x="3879.362060546875" class="er relationshipLabelBox"/><text style="text-anchor: middle; dominant-baseline: middle; font-size: 12px;" y="119.79225158691406" x="3900.822998046875" id="rel46" class="er relationshipLabel">offer_id</text><rect height="14" width="93" y="126.81584167480469" x="2860.011962890625" class="er relationshipLabelBox"/><text style="text-anchor: middle; dominant-baseline: middle; font-size: 12px;" y="133.8158416748047" x="2906.511962890625" id="rel47" class="er relationshipLabel">page_progress_id</text><rect height="14" width="94.078125" y="98.42463684082031" x="3298.83740234375" class="er relationshipLabelBox"/><text style="text-anchor: middle; dominant-baseline: middle; font-size: 12px;" y="105.42463684082031" x="3345.87646484375" id="rel48" class="er relationshipLabel">page_question_id</text><rect height="14" width="39.03125" y="361.82598876953125" x="1933.046875" class="er relationshipLabelBox"/><text style="text-anchor: middle; dominant-baseline: middle; font-size: 12px;" y="368.82598876953125" x="1952.5625" id="rel49" class="er relationshipLabel">user_id</text><rect height="14" width="67.953125" y="453.35357666015625" x="3833.35009765625" class="er relationshipLabelBox"/><text style="text-anchor: middle; dominant-baseline: middle; font-size: 12px;" y="460.35357666015625" x="3867.32666015625" id="rel50" class="er relationshipLabel">predicate_id</text><rect height="14" width="37.71875" y="614.5360107421875" x="4700.50244140625" class="er relationshipLabelBox"/><text style="text-anchor: middle; dominant-baseline: middle; font-size: 12px;" y="621.5360107421875" x="4719.36181640625" id="rel51" class="er relationshipLabel">rule_id</text><rect height="14" width="51.921875" y="750.5" x="4637.94677734375" class="er relationshipLabelBox"/><text style="text-anchor: middle; dominant-baseline: middle; font-size: 12px;" y="757.5" x="4663.90771484375" id="rel52" class="er relationshipLabel">parent_id</text><rect height="14" width="96.75" y="474.3869323730469" x="5030.4931640625" class="er relationshipLabelBox"/><text style="text-anchor: middle; dominant-baseline: middle; font-size: 12px;" y="481.3869323730469" x="5078.8681640625" id="rel53" class="er relationshipLabel">content_entrie_id</text><rect height="14" width="42.921875" y="521.4176025390625" x="4452.205078125" class="er relationshipLabelBox"/><text style="text-anchor: middle; dominant-baseline: middle; font-size: 12px;" y="528.4176025390625" x="4473.666015625" id="rel54" class="er relationshipLabel">offer_id</text><rect height="14" width="115.671875" y="447.8926696777344" x="3933.917236328125" class="er relationshipLabelBox"/><text style="text-anchor: middle; dominant-baseline: middle; font-size: 12px;" y="454.8926696777344" x="3991.753173828125" id="rel55" class="er relationshipLabel">settings_container_id</text><rect height="14" width="47.171875" y="640.0245361328125" x="846.87744140625" class="er relationshipLabelBox"/><text style="text-anchor: middle; dominant-baseline: middle; font-size: 12px;" y="647.0245361328125" x="870.46337890625" id="rel56" class="er relationshipLabel">client_id</text><rect height="14" width="61.390625" y="663" x="39.3046875" class="er relationshipLabelBox"/><text style="text-anchor: middle; dominant-baseline: middle; font-size: 12px;" y="670" x="70" id="rel57" class="er relationshipLabel">provider_id</text><rect height="14" width="39.03125" y="527.8468017578125" x="1567.5635986328125" class="er relationshipLabelBox"/><text style="text-anchor: middle; dominant-baseline: middle; font-size: 12px;" y="534.8468017578125" x="1587.0792236328125" id="rel58" class="er relationshipLabel">user_id</text></svg>